<svg xmlns="http://www.w3.org/2000/svg" width="1075" height="201" viewBox="0 0 1075 201"><defs><clipPath id="4jzra"><path fill="#fff" d="M0 0h1075v1H0z"/></clipPath><clipPath id="4jzrb"><path fill="#fff" d="M0 40h1075v1H0z"/></clipPath><clipPath id="4jzrc"><path fill="#fff" d="M0 79.999h1075V81H0z"/></clipPath><clipPath id="4jzrd"><path fill="#fff" d="M0 120h1075v1H0z"/></clipPath><clipPath id="4jzre"><path fill="#fff" d="M0 160h1075v1H0z"/></clipPath><clipPath id="4jzrf"><path fill="#fff" d="M0 200h1075v1H0z"/></clipPath></defs><g><g><path fill="#fff" d="M0 0h1075v1H0z"/><path fill="none" stroke="#d1d1d1" stroke-miterlimit="20" stroke-width="2" d="M0 0v0h1075v1H0v0z" clip-path="url(&quot;#4jzra&quot;)"/></g><g><path fill="#fff" d="M0 40h1075v1H0z"/><path fill="none" stroke="#d1d1d1" stroke-miterlimit="20" stroke-width="2" d="M0 40v0h1075v1H0v0z" clip-path="url(&quot;#4jzrb&quot;)"/></g><g><path fill="#fff" d="M0 79.999h1075V81H0z"/><path fill="none" stroke="#d1d1d1" stroke-miterlimit="20" stroke-width="2" d="M0 79.999v0h1075V81H0v0z" clip-path="url(&quot;#4jzrc&quot;)"/></g><g><path fill="#fff" d="M0 120h1075v1H0z"/><path fill="none" stroke="#d1d1d1" stroke-miterlimit="20" stroke-width="2" d="M0 120v0h1075v1H0v0z" clip-path="url(&quot;#4jzrd&quot;)"/></g><g><path fill="#fff" d="M0 160h1075v1H0z"/><path fill="none" stroke="#d1d1d1" stroke-miterlimit="20" stroke-width="2" d="M0 160v0h1075v1H0v0z" clip-path="url(&quot;#4jzre&quot;)"/></g><g><path fill="#fff" d="M0 200h1075v1H0z"/><path fill="none" stroke="#d1d1d1" stroke-miterlimit="20" stroke-width="2" d="M0 200v0h1075v1H0v0z" clip-path="url(&quot;#4jzrf&quot;)"/></g></g></svg>